<svg xmlns="http://www.w3.org/2000/svg" xmlns:xlink="http://www.w3.org/1999/xlink" width="500" zoomAndPan="magnify" viewBox="0 0 375 374.999991" height="500" preserveAspectRatio="xMidYMid meet" version="1.0"><defs><g/><clipPath id="00ac9889fd"><rect x="0" width="143" y="0" height="128"/></clipPath></defs><path fill="#e67e22" d="M 265.414062 109.59375 C 265.167969 109.34375 264.917969 109.097656 264.667969 108.851562 L 264.664062 108.851562 L 264.648438 108.832031 C 264.425781 108.617188 264.207031 108.402344 263.984375 108.1875 L 263.90625 108.113281 L 263.875 108.082031 L 263.761719 107.972656 L 263.316406 107.546875 L 263.089844 107.335938 L 262.980469 107.230469 L 262.503906 106.789062 L 262.300781 106.597656 L 262.1875 106.496094 L 261.847656 106.179688 L 261.734375 106.078125 L 261.390625 105.765625 L 261.277344 105.664062 L 261.164062 105.558594 C 260.929688 105.355469 260.703125 105.148438 260.46875 104.945312 L 260.355469 104.84375 C 259.621094 104.195312 258.878906 103.558594 258.128906 102.933594 L 258.128906 102.929688 C 243.351562 90.578125 225.296875 82.023438 205.453125 78.773438 L 202.679688 66.609375 C 227.617188 69.707031 250.214844 80.34375 268.128906 96.167969 L 301.257812 73.75 L 273.652344 101.359375 Z M 187.507812 0 L 187.507812 77.316406 C 187.089844 77.316406 186.675781 77.316406 186.257812 77.324219 L 186.234375 77.324219 C 185.820312 77.328125 185.40625 77.335938 184.992188 77.34375 L 184.933594 77.34375 C 184.554688 77.355469 184.175781 77.367188 183.792969 77.378906 L 183.714844 77.378906 C 183.332031 77.394531 182.953125 77.40625 182.574219 77.425781 L 182.398438 77.433594 C 182.03125 77.449219 181.664062 77.46875 181.296875 77.488281 L 181.25 77.492188 L 181.207031 77.492188 C 180.84375 77.515625 180.480469 77.535156 180.117188 77.5625 L 180.007812 77.566406 L 179.96875 77.570312 C 179.585938 77.597656 179.203125 77.625 178.820312 77.652344 L 178.773438 77.65625 L 178.710938 77.664062 C 178.335938 77.691406 177.960938 77.722656 177.585938 77.757812 L 177.539062 77.761719 L 177.460938 77.769531 C 177.097656 77.800781 176.734375 77.835938 176.375 77.871094 L 176.3125 77.878906 L 176.191406 77.890625 C 175.867188 77.921875 175.539062 77.957031 175.214844 77.996094 L 174.917969 78.027344 C 174.597656 78.0625 174.277344 78.101562 173.957031 78.140625 L 173.703125 78.175781 C 173.390625 78.210938 173.078125 78.253906 172.769531 78.292969 L 172.511719 78.328125 C 172.195312 78.371094 171.886719 78.414062 171.570312 78.460938 L 171.246094 78.507812 L 170.386719 78.640625 L 170.019531 78.699219 C 149.996094 81.894531 131.769531 90.484375 116.878906 102.933594 L 106.882812 96.167969 C 124.792969 80.34375 147.394531 69.707031 172.328125 66.609375 Z M 187.507812 375.007812 L 187.507812 297.691406 C 187.921875 297.691406 188.339844 297.691406 188.75 297.6875 L 188.777344 297.6875 C 189.1875 297.679688 189.605469 297.675781 190.015625 297.664062 L 190.078125 297.664062 C 190.453125 297.65625 190.832031 297.644531 191.214844 297.632812 L 191.269531 297.628906 L 191.296875 297.628906 C 191.679688 297.613281 192.058594 297.601562 192.433594 297.585938 L 192.609375 297.578125 C 192.980469 297.5625 193.347656 297.542969 193.714844 297.519531 L 193.761719 297.519531 L 193.804688 297.515625 C 194.167969 297.492188 194.527344 297.472656 194.890625 297.449219 L 195 297.441406 L 195.042969 297.441406 C 195.425781 297.414062 195.808594 297.386719 196.191406 297.355469 L 196.238281 297.351562 L 196.300781 297.347656 C 196.675781 297.316406 197.046875 297.285156 197.421875 297.253906 L 197.46875 297.25 L 197.554688 297.238281 C 197.917969 297.207031 198.277344 297.171875 198.636719 297.136719 L 198.703125 297.128906 L 198.820312 297.117188 C 199.140625 297.085938 199.460938 297.050781 199.785156 297.015625 L 200.101562 296.980469 C 200.421875 296.945312 200.738281 296.90625 201.054688 296.867188 L 201.304688 296.835938 C 201.617188 296.796875 201.933594 296.753906 202.246094 296.714844 L 202.5 296.679688 C 202.8125 296.636719 203.125 296.59375 203.433594 296.550781 L 203.757812 296.5 L 204.636719 296.367188 L 204.972656 296.316406 C 225.003906 293.121094 243.234375 284.53125 258.128906 272.078125 L 268.125 278.839844 C 250.214844 294.664062 227.617188 305.300781 202.679688 308.402344 Z M 375.007812 187.503906 L 297.695312 187.503906 C 297.695312 187.089844 297.691406 186.675781 297.6875 186.257812 L 297.6875 186.234375 C 297.679688 185.820312 297.675781 185.402344 297.667969 184.992188 L 297.660156 184.933594 C 297.652344 184.554688 297.644531 184.171875 297.632812 183.792969 L 297.628906 183.742188 L 297.628906 183.683594 C 297.613281 183.3125 297.601562 182.945312 297.585938 182.574219 L 297.578125 182.402344 C 297.5625 182.054688 297.542969 181.707031 297.523438 181.363281 L 297.511719 181.132812 C 297.492188 180.792969 297.472656 180.457031 297.449219 180.117188 L 297.441406 180.007812 L 297.441406 179.96875 C 297.417969 179.601562 297.386719 179.234375 297.359375 178.871094 L 297.34375 178.671875 C 297.316406 178.339844 297.289062 178.007812 297.261719 177.675781 L 297.238281 177.421875 C 297.207031 177.101562 297.175781 176.78125 297.148438 176.460938 L 297.117188 176.171875 C 297.085938 175.875 297.058594 175.578125 297.023438 175.28125 L 296.980469 174.917969 C 296.949219 174.632812 296.914062 174.34375 296.878906 174.054688 L 296.835938 173.699219 C 296.800781 173.417969 296.765625 173.132812 296.726562 172.847656 L 296.667969 172.441406 L 296.554688 171.636719 L 296.5 171.226562 C 296.457031 170.945312 296.414062 170.667969 296.371094 170.390625 L 296.308594 170.019531 C 293.117188 149.996094 284.523438 131.769531 272.078125 116.878906 L 278.839844 106.882812 C 294.667969 124.792969 305.296875 147.394531 308.402344 172.328125 Z M 0 187.503906 L 77.316406 187.503906 C 77.316406 187.921875 77.320312 188.335938 77.324219 188.75 L 77.324219 188.777344 C 77.328125 189.191406 77.335938 189.605469 77.34375 190.019531 L 77.34375 190.074219 C 77.351562 190.457031 77.367188 190.835938 77.378906 191.214844 L 77.378906 191.296875 C 77.390625 191.675781 77.40625 192.058594 77.425781 192.433594 L 77.433594 192.609375 C 77.449219 192.976562 77.46875 193.34375 77.488281 193.714844 L 77.492188 193.761719 L 77.492188 193.804688 C 77.511719 194.167969 77.535156 194.53125 77.558594 194.894531 L 77.566406 195 L 77.570312 195.039062 C 77.597656 195.425781 77.625 195.808594 77.65625 196.195312 L 77.65625 196.238281 L 77.664062 196.296875 C 77.691406 196.675781 77.722656 197.046875 77.757812 197.421875 L 77.761719 197.46875 L 77.769531 197.546875 C 77.800781 197.914062 77.835938 198.273438 77.871094 198.636719 L 77.878906 198.699219 L 77.890625 198.820312 C 77.925781 199.144531 77.957031 199.46875 77.996094 199.792969 L 78.027344 200.089844 C 78.066406 200.410156 78.101562 200.730469 78.140625 201.050781 L 78.171875 201.304688 C 78.210938 201.621094 78.253906 201.9375 78.296875 202.25 L 78.324219 202.480469 C 78.371094 202.800781 78.414062 203.121094 78.460938 203.4375 L 78.507812 203.761719 L 78.640625 204.621094 L 78.695312 204.988281 C 81.890625 225.011719 90.484375 243.238281 102.933594 258.128906 L 96.167969 268.125 C 80.34375 250.214844 69.710938 227.617188 66.609375 202.683594 Z M 73.75 301.257812 L 109.59375 265.414062 C 109.839844 265.664062 110.089844 265.910156 110.339844 266.15625 L 110.359375 266.175781 C 110.582031 266.390625 110.800781 266.605469 111.023438 266.820312 L 111.132812 266.929688 L 111.144531 266.933594 L 111.695312 267.460938 L 111.804688 267.566406 L 112.03125 267.777344 L 112.042969 267.789062 L 112.367188 268.09375 L 112.480469 268.203125 L 112.503906 268.222656 L 112.820312 268.515625 L 112.933594 268.621094 L 113.046875 268.722656 L 113.160156 268.828125 L 113.273438 268.929688 L 113.617188 269.242188 L 113.734375 269.347656 C 114.765625 270.277344 115.816406 271.1875 116.878906 272.078125 C 131.65625 284.429688 149.714844 292.984375 169.554688 296.238281 L 172.328125 308.402344 C 147.394531 305.300781 124.792969 294.664062 106.882812 278.84375 Z M 301.257812 301.257812 L 273.652344 273.648438 L 265.414062 265.414062 C 265.664062 265.167969 265.910156 264.917969 266.15625 264.667969 L 266.175781 264.648438 C 266.386719 264.429688 266.605469 264.207031 266.820312 263.984375 L 266.925781 263.871094 L 267.035156 263.761719 L 267.460938 263.316406 L 267.566406 263.203125 L 267.675781 263.089844 L 267.777344 262.980469 L 267.792969 262.964844 L 268.09375 262.640625 L 268.199219 262.527344 L 268.222656 262.503906 L 268.515625 262.1875 L 268.621094 262.074219 L 268.722656 261.960938 L 268.828125 261.847656 L 268.929688 261.734375 C 270.003906 260.554688 271.054688 259.351562 272.078125 258.128906 C 284.429688 243.351562 292.984375 225.292969 296.234375 205.453125 L 308.402344 202.683594 C 305.304688 227.617188 294.667969 250.214844 278.839844 268.125 Z M 73.75 73.75 L 109.59375 109.59375 C 109.347656 109.839844 109.097656 110.089844 108.851562 110.34375 L 108.832031 110.359375 C 108.617188 110.582031 108.40625 110.800781 108.191406 111.019531 L 108.082031 111.136719 L 107.972656 111.246094 L 107.546875 111.695312 L 107.441406 111.804688 L 107.230469 112.03125 L 107.21875 112.042969 L 106.914062 112.367188 L 106.808594 112.480469 L 106.785156 112.503906 L 106.492188 112.820312 L 106.390625 112.933594 L 106.179688 113.160156 L 106.078125 113.273438 C 105.003906 114.453125 103.953125 115.65625 102.929688 116.878906 C 90.578125 131.65625 82.023438 149.714844 78.773438 169.554688 L 66.609375 172.328125 C 69.707031 147.394531 80.34375 124.792969 96.167969 106.882812 Z M 73.75 73.75 " fill-opacity="1" fill-rule="nonzero"/><g transform="matrix(1, 0, 0, 1, 116, 131)"><g clip-path="url(#00ac9889fd)"><g fill="#e67e22" fill-opacity="1"><g transform="translate(0.960937, 96.841888)"><g><path d="M 49.6875 -62.5 L 1.609375 -62.5 C 1.753906 -63.9375 1.914062 -65.335938 2.09375 -66.703125 C 2.28125 -68.066406 2.515625 -69.394531 2.796875 -70.6875 C 5.742188 -70.832031 9.28125 -70.941406 13.40625 -71.015625 C 17.539062 -71.085938 21.851562 -71.125 26.34375 -71.125 C 30.832031 -71.125 35.144531 -71.085938 39.28125 -71.015625 C 43.414062 -70.941406 46.953125 -70.832031 49.890625 -70.6875 C 49.890625 -69.46875 49.890625 -68.15625 49.890625 -66.75 C 49.890625 -65.351562 49.820312 -63.9375 49.6875 -62.5 Z M 139.984375 -62.5 L 98.390625 -62.5 C 98.535156 -63.9375 98.695312 -65.351562 98.875 -66.75 C 99.050781 -68.15625 99.285156 -69.46875 99.578125 -70.6875 C 103.742188 -70.90625 108.175781 -71.03125 112.875 -71.0625 C 117.582031 -71.101562 122.289062 -71.101562 127 -71.0625 C 131.707031 -71.03125 136.109375 -70.90625 140.203125 -70.6875 C 140.203125 -69.394531 140.203125 -68.066406 140.203125 -66.703125 C 140.203125 -65.335938 140.128906 -63.9375 139.984375 -62.5 Z M 50.65625 -11.3125 L 36.859375 -11.3125 L 23.921875 -59.703125 L 49.46875 -59.703125 C 49.394531 -58.117188 49.25 -56.585938 49.03125 -55.109375 C 48.8125 -53.640625 48.597656 -52.257812 48.390625 -50.96875 L 41.0625 -50.96875 L 46.125 -25.21875 L 58.1875 -70.265625 C 61.707031 -70.546875 65.367188 -70.722656 69.171875 -70.796875 C 72.984375 -70.867188 76.664062 -70.867188 80.21875 -70.796875 C 83.78125 -70.722656 86.859375 -70.546875 89.453125 -70.265625 L 100.546875 -24.578125 L 106.046875 -50.96875 L 97.84375 -50.96875 C 97.84375 -53.769531 97.953125 -56.679688 98.171875 -59.703125 L 120.15625 -59.703125 L 107.234375 -11.3125 L 91.28125 -11.3125 L 77.484375 -62.5 L 65.515625 -62.5 Z M 77.703125 0 L 69.1875 -32.875 L 59.703125 0 C 57.546875 0.351562 54.921875 0.617188 51.828125 0.796875 C 48.742188 0.984375 45.441406 1.078125 41.921875 1.078125 C 38.398438 1.078125 34.929688 0.984375 31.515625 0.796875 C 28.109375 0.617188 25.039062 0.351562 22.3125 0 L 7.328125 -50.96875 L 0.96875 -50.96875 C 1.039062 -52.40625 1.113281 -53.84375 1.1875 -55.28125 C 1.257812 -56.71875 1.332031 -58.15625 1.40625 -59.59375 L 20.265625 -59.59375 L 34.375 -8.40625 L 53.125 -8.40625 L 68 -59.59375 L 75 -59.59375 L 88.796875 -8.40625 L 109.703125 -8.40625 L 123.828125 -59.59375 L 139.765625 -59.59375 C 139.410156 -56.4375 138.984375 -53.5625 138.484375 -50.96875 L 133.203125 -50.96875 L 117.6875 0 C 115.53125 0.351562 112.757812 0.617188 109.375 0.796875 C 106 0.984375 102.390625 1.078125 98.546875 1.078125 C 94.703125 1.078125 90.945312 0.984375 87.28125 0.796875 C 83.625 0.617188 80.429688 0.351562 77.703125 0 Z M 77.703125 0 "/></g></g></g></g></g></svg>